<svg xmlns="http://www.w3.org/2000/svg" enable-background="new 0 0 32 32" viewBox="0 0 32 32" id="account-security">
  <g id="Account_security">
    <g>
      <circle cx="13" cy="6" r="4"></circle>
      <path d="M10.9,15.55c0-0.64,0.02-0.9,5.78-3.78C15.51,11.27,14.27,11,13,11C7.49,11,3,15.93,3,22c0,0.55,0.45,1,1,1h8.22
			C11.35,20.75,10.9,18.26,10.9,15.55z"></path>
      <path d="M21.44,12.1c-0.27-0.13-0.6-0.13-0.87,0c-1.43,0.68-7.65,3.43-7.65,4.44c0.07,9.11,7.36,13.18,7.69,13.35
			c0.14,0.07,0.3,0.11,0.46,0.11c0.16,0,0.32-0.04,0.47-0.12c0.3-0.16,7.46-4.04,7.46-13.19C29,15.97,29,15.7,21.44,12.1z
			 M24.74,19.67l-3.6,4C20.95,23.88,20.68,24,20.4,24s-0.55-0.12-0.74-0.33L17.26,21c-0.37-0.41-0.34-1.04,0.07-1.41
			c0.41-0.37,1.04-0.34,1.41,0.07l1.66,1.84l2.86-3.17c0.37-0.41,1-0.44,1.41-0.07C25.08,18.63,25.11,19.26,24.74,19.67z"></path>
    </g>
  </g>
</svg>
